<?xml version="1.0" encoding="utf-8"?>
<!-- Generator: Adobe Illustrator 28.2.0, SVG Export Plug-In . SVG Version: 6.00 Build 0)  -->
<svg version="1.1" id="Main" xmlns="http://www.w3.org/2000/svg" xmlns:xlink="http://www.w3.org/1999/xlink" x="0px" y="0px"
	 viewBox="0 0 291 126" style="enable-background:new 0 0 291 126;" xml:space="preserve">
<style type="text/css">
	.st0{display:none;}
	.st1{fill:none;stroke:#000000;stroke-width:2;stroke-linecap:round;stroke-linejoin:round;stroke-miterlimit:10;}
	.stBlue{stroke:#27338A;}
	.stRed{stroke:#E30614;}
	.stYellow{stroke:#FFE22B;}
</style>

<g id="Traces">
	<g id="Blue" class="stBlue">
		<path class="st1 stBlue" d="M5,118.28c0,0,15.49-45.28,73.7-41.53c43.91,0.85,47.66-24.17,46.72-26.55"/>
		<path class="st1 stBlue" d="M30.11,96.83c-4.62,5.91-5.88,13.1-3.72,18.28c0.72,1.73,1.82,3.23,3.3,4.39c5.93,4.64,15.74,2,21.9-5.88
			S57.94,95.58,52,90.95S36.27,88.95,30.11,96.83z"/>
		<line class="st1 stBlue" x1="10.85" y1="115.87" x2="26.07" y2="116.06"/>
		<path class="st1 stBlue" d="M53.29,111.13"/>
		<line class="st1 stBlue" x1="50" y1="116.06" x2="70.85" y2="116.06"/>
	</g>
	<g id="Red" class="stRed">
		<path class="st1 stRed" d="M111.38,42.02c0,0-26.77,5.79-15.99,29.28C124.5,66.87,124.32,41.85,111.38,42.02z"/>
		<path class="st1 stRed" d="M92.83,61.94c0,0,14.13,4.09,37.45-37.45c-17.36,27.4-35.63,28.96-35.63,28.96"/>
	</g>
	<g id="Yellow" class="stYellow">
		<path class="st1 stYellow" d="M155.02,88.34c0,0,13.94-7.27,45.47-15.82s34.72-20.04,34.72-20.04s23.62-10.47,32.94-24.89
			c14.94-9.57,10.24-14.11,10.24-14.11"/>
		<path class="st1 stYellow" d="M125.43,94.08c0,0,34.9-6.48,28.49-37.89c0,0,23.68-3.28,84.44-16.04c25.28-2.55,29.79-12.55,29.79-12.55"/>
		<path class="st1 stYellow" d="M144.65,94.08c0,0,8.56-2.1,13.01-8.85c1.88-2.86,3.03-6.55,2.48-11.26"/>
		<path class="st1 stYellow" d="M153.3,72.53c0,0,25.4-4.63,38.61-9.53c21.95-1.91,43.3-10.51,43.3-10.51"/>
		<path class="st1 stYellow" d="M278.39,13.49"/>
		<path class="st1 stYellow" d="M127.72,37.6c0,0-0.35-12.7,20.68-15.17c0,0,116.91,2.02,129.99-8.94"/>
		<path class="st1 stYellow" d="M127.3,42.02c0,0,3.4,13.79,6.72,17.36c3.32,3.57-3.36,15.66-3.36,15.66"/>
		<path class="st1 stYellow" d="M132.32,80.15c0,0,7.91-2.03,9.7-18.1c1.79-16.07,7.49-18.49,7.49-18.49c0.03,0.18,0.06,0.35,0.1,0.52
			c5.76,32.27-19.33,42.88-19.33,42.88"/>
		<path class="st1 stYellow" d="M276.57,20.78c0,0-15.74,12.38-64.71,15.11c-60.49,3.37-62.34,7.66-62.34,7.66"/>
	</g>
</g>
</svg>
